<svg width="24" height="24" viewBox="0 0 24 24" fill="none" xmlns="http://www.w3.org/2000/svg">
<path d="M24 20.88L17.5995 14.526C18.5365 13.061 19.0775 11.326 19.0775 9.467C19.0785 4.248 14.7988 0 9.53875 0C4.27873 0 0 4.248 0 9.468C0 14.689 4.27873 18.937 9.53875 18.937C11.32 18.937 12.9853 18.45 14.4139 17.604L20.8577 24L24 20.88ZM3.55436 9.468C3.55436 6.195 6.23927 3.53 9.53774 3.53C12.8372 3.53 15.5221 6.194 15.5221 9.468C15.5221 12.743 12.8372 15.407 9.53774 15.407C6.23927 15.407 3.55436 12.743 3.55436 9.468Z" fill="#86C885"/>
</svg>
