<svg viewBox="0 0 24 24" fill="none" xmlns="http://www.w3.org/2000/svg" role="img" aria-labelledby="iconFilters">
  <title id="iconFilters">Filters</title>
  <path fill-rule="evenodd" clip-rule="evenodd" d="M5.05322 3C4.50094 3 4.05322 3.44772 4.05322 4V12H2.05322V14H4.05322V20C4.05322 20.5523 4.50094 21 5.05322 21C5.60551 21 6.05322 20.5523 6.05322 20V14H8.05322V12H6.05322V4C6.05322 3.44772 5.60551 3 5.05322 3ZM19.0532 3C18.5009 3 18.0532 3.44772 18.0532 4V15H16.0532V17H18.0532V20C18.0532 20.5523 18.5009 21 19.0532 21C19.6055 21 20.0532 20.5523 20.0532 20V17H22.0532V15H20.0532V4C20.0532 3.44772 19.6055 3 19.0532 3ZM11.0532 4C11.0532 3.44772 11.5009 3 12.0532 3C12.6055 3 13.0532 3.44772 13.0532 4V7H15.0532V9H13.0532V20C13.0532 20.5523 12.6055 21 12.0532 21C11.5009 21 11.0532 20.5523 11.0532 20V9H9.05322V7H11.0532V4Z" fill="currentColor"/>
</svg>
