<svg viewBox="0 0 171 60" fill="none" xmlns="http://www.w3.org/2000/svg" role="img" aria-labelledby="siteLogo">
<title id="siteLogo">Portail de Collapsologie</title>
<g fill="currentColor">
  <path d="M4.39605 1.15137C5.01192 1.15137 5.72336 1.1407 6.53036 1.11938C7.33737 1.07674 8.05943 1.05542 8.69653 1.05542C9.33364 1.05542 9.96013 1.11938 10.576 1.24731C11.2131 1.35392 11.8396 1.55648 12.4555 1.85498C13.0926 2.15348 13.6447 2.52661 14.112 2.97436C14.6004 3.40079 14.9933 3.95515 15.2906 4.63744C15.6092 5.31973 15.7684 6.07665 15.7684 6.90819C15.7684 7.91031 15.503 8.8911 14.9721 9.85057C14.4624 10.81 13.6766 11.6309 12.6148 12.3132C11.5741 12.9742 10.3955 13.3047 9.0788 13.3047C8.63282 13.3047 8.18685 13.23 7.74087 13.0808C7.2949 12.9102 6.98696 12.7077 6.81706 12.4731C6.77459 12.4305 6.73212 12.3239 6.68964 12.1533C6.66841 11.9827 6.66841 11.8228 6.68964 11.6736C6.71088 11.5243 6.74273 11.4497 6.78521 11.4497C7.27366 11.6629 7.86829 11.7695 8.56911 11.7695C9.58849 11.7695 10.3955 11.3537 10.9901 10.5222C11.5848 9.66934 11.8821 8.60326 11.8821 7.32396C11.8821 5.89542 11.5954 4.76537 11.022 3.93383C10.4486 3.10229 9.56725 2.68652 8.37798 2.68652C7.48603 2.68652 6.87016 2.76114 6.53036 2.9104C6.27552 3.03833 6.1481 4.14705 6.1481 6.23656V17.6543C6.1481 18.9336 6.23305 19.8397 6.40294 20.3728C6.46665 20.6286 6.81706 20.8418 7.45417 21.0124C8.11252 21.1617 8.59035 21.2363 8.88767 21.2363C8.97262 21.2363 9.01509 21.4175 9.01509 21.78C9.01509 22.0145 8.99385 22.1958 8.95138 22.3237C6.61531 22.1958 5.10749 22.1318 4.42791 22.1318C3.85451 22.1318 3.20678 22.1531 2.48472 22.1958C1.7839 22.2171 1.22113 22.2384 0.796386 22.2597L0.159277 22.3237C0.0955663 22.2384 0.0637109 22.0465 0.0637109 21.748C0.0637109 21.4069 0.0955663 21.2363 0.159277 21.2363C0.435358 21.2363 0.83886 21.1723 1.36978 21.0444C1.92194 20.8952 2.2405 20.7246 2.32545 20.5327C2.45287 20.1489 2.51658 19.1788 2.51658 17.6223V5.53295C2.51658 4.31762 2.45287 3.44344 2.32545 2.9104C2.26174 2.73982 1.94318 2.56925 1.36978 2.39868C0.817623 2.20678 0.414121 2.11084 0.159277 2.11084C0.0743294 2.11084 0.0318554 1.95092 0.0318554 1.6311C0.0318554 1.31128 0.0743294 1.11938 0.159277 1.05542C2.38916 1.11938 3.80142 1.15137 4.39605 1.15137Z"/>
  <path d="M24.242 9.56273C23.2439 9.56273 22.4687 10.0531 21.9165 11.0339C21.3644 11.9934 21.0883 13.1448 21.0883 14.488C21.0883 16.2151 21.4281 17.7182 22.1077 18.9975C22.8085 20.2768 23.7748 20.9165 25.0065 20.9165C26.0047 20.9165 26.7798 20.4261 27.332 19.4453C27.9054 18.4645 28.1921 17.3131 28.1921 15.9912C28.1921 14.8825 28.054 13.859 27.7779 12.9209C27.5019 11.9614 27.0559 11.1618 26.44 10.5222C25.8241 9.88255 25.0915 9.56273 24.242 9.56273ZM24.6561 8.05956C26.6524 8.05956 28.3513 8.76317 29.753 10.1704C31.1759 11.5563 31.8873 13.2407 31.8873 15.2236C31.8873 17.2065 31.1865 18.9016 29.7848 20.3088C28.4044 21.716 26.7055 22.4196 24.688 22.4196C22.6705 22.4196 20.9609 21.716 19.5592 20.3088C18.1576 18.9016 17.4568 17.2065 17.4568 15.2236C17.4568 13.2194 18.147 11.5243 19.5274 10.1384C20.929 8.75251 22.6386 8.05956 24.6561 8.05956Z"/>
  <path d="M42.9411 8.05956C44.1092 8.05956 44.9799 8.41136 45.5533 9.11498C45.5533 10.9273 45.0436 11.8335 44.0242 11.8335C43.6419 11.8335 43.2278 11.6203 42.7819 11.1938C42.3359 10.7674 41.8793 10.5542 41.4121 10.5542C40.7537 10.5542 40.2334 10.8953 39.8512 11.5776C39.4901 12.2386 39.3096 12.9315 39.3096 13.6565V17.6543C39.3096 18.9549 39.3839 19.9144 39.5326 20.5327C39.5751 20.6819 39.8512 20.8418 40.3608 21.0124C40.8918 21.1617 41.2528 21.2363 41.4439 21.2363C41.5076 21.2363 41.5395 21.3962 41.5395 21.716C41.5607 22.0145 41.5607 22.2171 41.5395 22.3237C41.3696 22.3024 40.8068 22.2597 39.8512 22.1958C38.8955 22.1318 38.1734 22.0998 37.685 22.0998C37.1753 22.0998 36.432 22.1318 35.4551 22.1958C34.4994 22.2597 33.9367 22.3024 33.7668 22.3237C33.6818 22.2384 33.6393 22.0359 33.6393 21.716C33.6393 21.3962 33.6818 21.2363 33.7668 21.2363C34.0216 21.2363 34.4039 21.1617 34.9136 21.0124C35.4445 20.8418 35.7312 20.6819 35.7737 20.5327C35.9223 19.893 35.9966 19.1148 35.9966 18.198V12.9848C35.9966 11.9827 35.8267 11.3004 35.487 10.938C35.3171 10.7248 35.0728 10.5648 34.7543 10.4582C34.457 10.3516 34.2021 10.2877 33.9898 10.2663C33.7986 10.245 33.7031 10.213 33.7031 10.1704C33.7031 9.55207 33.7561 9.23225 33.8623 9.21092C34.8392 9.12564 36.5488 8.80581 38.9911 8.25145C38.9911 8.25145 39.0229 8.24079 39.0866 8.21947C39.1716 8.19815 39.2247 8.18749 39.2459 8.18749C39.3308 8.18749 39.4052 8.26211 39.4689 8.41136C39.5326 8.56062 39.5538 8.68855 39.5326 8.79515C39.5326 8.88044 39.522 9.02969 39.5007 9.24291C39.4795 9.4348 39.4477 9.64802 39.4052 9.88255C39.3839 10.0958 39.3733 10.2344 39.3733 10.2983C39.7556 9.72264 40.2759 9.21092 40.9342 8.76317C41.5926 8.2941 42.2615 8.05956 42.9411 8.05956Z"/>
  <path d="M49.1529 10.2983H47.2098C47.0611 10.2983 46.9868 10.0211 46.9868 9.46678C46.9868 9.31753 46.9974 9.22158 47.0186 9.17894C47.8681 8.79515 48.6857 8.23013 49.4715 7.48388C49.7476 7.20669 50.0449 6.89753 50.3634 6.55639C50.7032 6.19392 50.9793 5.8741 51.1917 5.59692C51.4253 5.31973 51.5421 5.18114 51.5421 5.18114C51.7545 5.18114 51.9562 5.21313 52.1474 5.27709C52.3385 5.31973 52.4341 5.37304 52.4341 5.437V8.57128C52.9862 8.57128 53.7507 8.58194 54.7276 8.60326C55.7258 8.60326 56.2567 8.60326 56.3204 8.60326C56.4903 8.60326 56.5753 8.69921 56.5753 8.8911C56.5753 9.40282 56.4691 9.87189 56.2567 10.2983H52.4341V18.0061C52.4341 18.8589 52.6146 19.5092 52.9756 19.957C53.3366 20.4048 53.8357 20.6286 54.4728 20.6286C54.6852 20.6286 54.9082 20.6073 55.1418 20.5647C55.3754 20.5007 55.5665 20.4367 55.7152 20.3728C55.8638 20.3088 56.0019 20.2448 56.1293 20.1809C56.2567 20.1169 56.331 20.0849 56.3523 20.0849C56.4372 20.0636 56.5328 20.1596 56.639 20.3728C56.7452 20.586 56.7876 20.7246 56.7664 20.7885C56.639 21.087 56.1824 21.4389 55.3966 21.844C54.6321 22.2277 53.8782 22.4196 53.1349 22.4196C52.0305 22.4196 51.0855 22.0678 50.2997 21.3642C49.5352 20.6393 49.1529 19.5306 49.1529 18.0381V10.2983Z"/>
  <path d="M63.7109 20.3408C64.2843 20.3408 64.7727 20.1915 65.1762 19.893C65.601 19.5945 65.8133 19.2534 65.8133 18.8696V15.6074C65.6647 15.6714 65.3461 15.778 64.8577 15.9272C64.3905 16.0765 64.0294 16.2044 63.7746 16.311C63.5197 16.4176 63.2224 16.5669 62.8826 16.7588C62.5428 16.9507 62.288 17.1852 62.1181 17.4624C61.9694 17.7396 61.8951 18.0381 61.8951 18.3579C61.8951 19.0402 62.065 19.5412 62.4048 19.8611C62.7446 20.1809 63.18 20.3408 63.7109 20.3408ZM65.1444 8.05956C66.4611 8.05956 67.4486 8.41136 68.1069 9.11498C68.7653 9.79727 69.0944 10.9806 69.0944 12.665V18.9655C69.0944 19.392 69.19 19.7225 69.3811 19.957C69.5723 20.1702 69.8271 20.2768 70.1457 20.2768C70.4642 20.2768 70.8253 20.1382 71.2288 19.8611C71.3562 19.9037 71.4199 20.021 71.4199 20.2129C71.4199 20.6393 71.3562 20.9591 71.2288 21.1723C70.9102 21.4282 70.4855 21.6947 69.9545 21.9719C69.4236 22.2491 68.9139 22.3877 68.4255 22.3877C67.937 22.3877 67.4592 22.2064 66.992 21.844C66.5248 21.4815 66.2168 21.087 66.0682 20.6606C66.0469 20.6819 65.962 20.7566 65.8133 20.8845C65.6859 20.9911 65.4948 21.1297 65.2399 21.3003C65.0063 21.4708 64.7302 21.6414 64.4117 21.812C64.1144 21.9826 63.7533 22.1211 63.3286 22.2277C62.9251 22.3557 62.511 22.4196 62.0863 22.4196C61.0244 22.4196 60.1537 22.1318 59.4741 21.5561C58.8158 20.9591 58.4866 20.1489 58.4866 19.1255C58.4866 18.6137 58.6034 18.134 58.837 17.6863C59.0918 17.2385 59.3892 16.876 59.7289 16.5989C60.0687 16.3004 60.5253 16.0125 61.0987 15.7353C61.6721 15.4581 62.1606 15.2556 62.5641 15.1277C62.9888 14.9784 63.5197 14.8078 64.1569 14.6159C64.8152 14.4241 65.2718 14.2855 65.5266 14.2002C65.7178 14.1149 65.8133 13.9443 65.8133 13.6885V11.9294C65.8133 11.1832 65.6434 10.5968 65.3036 10.1704C64.9639 9.74396 64.5073 9.53075 63.9339 9.53075C63.2968 9.53075 62.7977 9.7333 62.4367 10.1384C62.0756 10.5222 61.8951 11.0766 61.8951 11.8015C61.8951 12.2279 61.7358 12.5478 61.4173 12.761C61.0987 12.9529 60.7377 13.0488 60.3342 13.0488C59.5484 13.0488 58.9963 12.7929 58.6777 12.2812C58.6777 11.2578 59.3679 10.2983 60.7483 9.40282C62.15 8.50731 63.6153 8.05956 65.1444 8.05956Z"/>
  <path d="M75.2107 4.28564C74.8284 3.88053 74.6373 3.41145 74.6373 2.87841C74.6373 2.32405 74.8284 1.85498 75.2107 1.47119C75.593 1.0874 76.0602 0.895506 76.6123 0.895506C77.1645 0.895506 77.6317 1.0874 78.014 1.47119C78.3962 1.85498 78.5874 2.32405 78.5874 2.87841C78.5874 3.41145 78.3962 3.88053 78.014 4.28564C77.6317 4.66943 77.1645 4.86132 76.6123 4.86132C76.0602 4.86132 75.593 4.66943 75.2107 4.28564ZM78.5237 17.6543C78.5237 18.9549 78.6086 19.9144 78.7785 20.5327C78.821 20.6819 79.1077 20.8418 79.6386 21.0124C80.1695 21.1617 80.5305 21.2363 80.7217 21.2363C80.8066 21.2363 80.8491 21.3962 80.8491 21.716C80.8703 22.0145 80.8597 22.2171 80.8172 22.3237C80.6686 22.3024 80.0952 22.2597 79.0971 22.1958C78.1202 22.1318 77.3981 22.0998 76.9309 22.0998C76.4 22.0998 75.646 22.1318 74.6691 22.1958C73.7135 22.2597 73.1613 22.3024 73.0127 22.3237C72.9277 22.2384 72.8852 22.0359 72.8852 21.716C72.8852 21.3962 72.9277 21.2363 73.0127 21.2363C73.2463 21.2363 73.6285 21.1617 74.1595 21.0124C74.6904 20.8418 74.9771 20.6819 75.0196 20.5327C75.1682 19.893 75.2425 19.1148 75.2425 18.198V12.9848C75.2425 11.9827 75.0726 11.3004 74.7329 10.938C74.5417 10.7248 74.2975 10.5648 74.0002 10.4582C73.7029 10.3516 73.448 10.2877 73.2356 10.2663C73.0233 10.245 72.9171 10.213 72.9171 10.1704C72.9171 9.55207 72.9808 9.23225 73.1082 9.21092C73.7029 9.16828 74.563 9.04035 75.6885 8.82714C76.8141 8.61392 77.6529 8.42202 78.2051 8.25145C78.2263 8.25145 78.2688 8.24079 78.3325 8.21947C78.4175 8.19815 78.4599 8.18749 78.4599 8.18749C78.5661 8.18749 78.6511 8.26211 78.7148 8.41136C78.7785 8.56062 78.7997 8.67788 78.7785 8.76317C78.6086 10.1278 78.5237 11.0446 78.5237 11.5137V17.6543Z"/>
  <path d="M87.9529 17.5903C87.9529 18.9122 88.0272 19.8717 88.1758 20.4687C88.2183 20.618 88.4732 20.7885 88.9404 20.9804C89.4288 21.151 89.758 21.2363 89.9279 21.2363C89.9916 21.2363 90.0235 21.3855 90.0235 21.684C90.0447 21.9826 90.0341 22.1851 89.9916 22.2917C89.6943 22.2704 89.2908 22.2384 88.7811 22.1958C88.2927 22.1744 87.8467 22.1531 87.4432 22.1318C87.0397 22.1105 86.6574 22.0998 86.2964 22.0998C85.8929 22.0998 85.4894 22.1105 85.0859 22.1318C84.6824 22.1531 84.2364 22.1744 83.7479 22.1958C83.2595 22.2384 82.856 22.2704 82.5374 22.2917C82.4525 22.2064 82.41 22.0145 82.41 21.716C82.41 21.3962 82.4525 21.2363 82.5374 21.2363C82.771 21.2363 83.1215 21.151 83.5887 20.9804C84.0771 20.7885 84.3426 20.618 84.3851 20.4687C84.5549 19.7225 84.6399 18.9336 84.6399 18.102V4.79736C84.6399 3.98714 84.5762 3.2622 84.4488 2.62255C84.3426 2.28141 83.8117 2.11084 82.856 2.11084H82.5374C82.41 2.11084 82.3463 1.98291 82.3463 1.72705C82.3463 1.3859 82.41 1.21533 82.5374 1.21533C83.1958 1.15137 83.8223 1.06608 84.4169 0.959471C85.0115 0.852863 85.5 0.746255 85.8823 0.639647C86.2858 0.53304 86.6256 0.437092 86.9016 0.351806C87.199 0.245198 87.4326 0.159912 87.6025 0.0959471L87.8254 0H87.8892C87.9741 0 88.0591 0.0639647 88.144 0.191894C88.2502 0.319824 88.3139 0.426432 88.3351 0.511718C88.0803 1.32194 87.9529 2.32405 87.9529 3.51806V17.5903Z"/>
  <path d="M105.346 9.53075C104.22 9.53075 103.371 10.0105 102.798 10.97C102.224 11.9294 101.937 13.2194 101.937 14.8398C101.937 16.6522 102.267 18.07 102.925 19.0935C103.583 20.0956 104.507 20.5966 105.696 20.5966C106.418 20.5966 107.002 20.4154 107.448 20.0529C107.894 19.6692 108.117 19.1894 108.117 18.6137V11.8974C108.117 11.6842 108.075 11.4604 107.99 11.2258C107.926 10.9913 107.799 10.7461 107.608 10.4902C107.438 10.213 107.151 9.98916 106.748 9.81859C106.365 9.62669 105.898 9.53075 105.346 9.53075ZM105.633 7.99559C106.546 7.99559 107.321 8.14484 107.958 8.44335C108.064 8.44335 108.117 8.27277 108.117 7.93163V4.92529C108.117 4.11507 108.054 3.39013 107.926 2.75048C107.82 2.40934 107.268 2.23877 106.27 2.23877H106.015C105.887 2.23877 105.824 2.06819 105.824 1.72705C105.824 1.3859 105.887 1.21533 106.015 1.21533C106.652 1.15137 107.268 1.06608 107.863 0.959471C108.478 0.852863 108.977 0.746255 109.36 0.639647C109.763 0.53304 110.103 0.426432 110.379 0.319824C110.676 0.213216 110.899 0.13859 111.048 0.0959471C111.197 0.0319824 111.282 0 111.303 0H111.367C111.452 0 111.537 0.0639647 111.621 0.191894C111.706 0.298502 111.749 0.40511 111.749 0.511718C111.537 1.34326 111.43 2.34537 111.43 3.51806V17.5903C111.43 18.5711 111.494 19.36 111.621 19.957C111.643 20.1063 111.749 20.2235 111.94 20.3088C112.131 20.3941 112.333 20.4474 112.545 20.4687C112.758 20.49 112.959 20.5114 113.151 20.5327C113.342 20.5327 113.448 20.5327 113.469 20.5327C113.512 20.5753 113.533 20.7033 113.533 20.9165C113.533 21.3429 113.469 21.5561 113.342 21.5561C113.044 21.5774 112.662 21.6201 112.195 21.684C111.749 21.748 111.303 21.8226 110.857 21.9079C110.432 21.9719 110.018 22.0465 109.615 22.1318C109.232 22.1958 108.914 22.2491 108.659 22.2917C108.425 22.3557 108.308 22.3877 108.308 22.3877C108.181 22.3877 108.117 22.2064 108.117 21.844V21.3003C108.117 21.2363 108.096 21.1937 108.054 21.1723C108.032 21.151 108.011 21.151 107.99 21.1723C106.971 21.9612 105.866 22.3557 104.677 22.3557C102.957 22.3557 101.46 21.7267 100.185 20.4687C98.9111 19.1894 98.274 17.5903 98.274 15.6714C98.274 13.5605 98.9961 11.7589 100.44 10.2663C101.906 8.75251 103.636 7.99559 105.633 7.99559Z"/>
  <path d="M121.337 9.53075C120.828 9.53075 120.371 9.68 119.968 9.9785C119.564 10.277 119.256 10.6395 119.044 11.0659C118.831 11.4923 118.672 11.8974 118.566 12.2812C118.481 12.6437 118.439 12.9529 118.439 13.2087C118.439 13.358 118.502 13.4326 118.63 13.4326H123.79C123.981 13.4326 124.077 13.2727 124.077 12.9529C124.077 12.2066 123.822 11.4497 123.312 10.6821C122.824 9.91454 122.166 9.53075 121.337 9.53075ZM121.56 8.05956C122.558 8.05956 123.45 8.26211 124.236 8.66722C125.022 9.05101 125.638 9.55207 126.084 10.1704C126.53 10.7674 126.87 11.3964 127.103 12.0574C127.337 12.697 127.454 13.3153 127.454 13.9123C127.454 14.3814 127.369 14.6799 127.199 14.8078C127.05 14.9144 126.732 14.9678 126.243 14.9678H118.63C118.481 14.9678 118.407 15.0317 118.407 15.1596C118.407 15.9272 118.545 16.6735 118.821 17.3984C119.097 18.1233 119.564 18.7523 120.222 19.2854C120.902 19.8184 121.709 20.0849 122.643 20.0849C122.962 20.0849 123.27 20.0743 123.567 20.0529C123.865 20.0103 124.141 19.957 124.395 19.893C124.65 19.8078 124.873 19.7331 125.064 19.6692C125.256 19.6052 125.447 19.5092 125.638 19.3813C125.85 19.2534 125.999 19.1681 126.084 19.1255C126.169 19.0615 126.296 18.9762 126.466 18.8696C126.636 18.7417 126.721 18.6777 126.721 18.6777C126.763 18.699 126.816 18.763 126.88 18.8696C126.944 18.9762 126.976 19.0828 126.976 19.1894C126.976 19.424 126.912 19.6265 126.785 19.7971C126.466 20.3728 125.84 20.9485 124.905 21.5241C123.971 22.0998 122.92 22.3877 121.751 22.3877C119.904 22.3877 118.311 21.7054 116.973 20.3408C115.635 18.9549 114.966 17.2811 114.966 15.3196C114.966 13.1661 115.582 11.4177 116.814 10.0744C118.067 8.73119 119.649 8.05956 121.56 8.05956Z"/>
  <path d="M6.91263 38.7626C8.03819 38.7626 9.03633 38.9545 9.90704 39.3383C10.799 39.7008 11.4361 40.1059 11.8184 40.5536C11.8184 41.2786 11.6909 41.8862 11.4361 42.3766C11.2025 42.8457 10.8415 43.0803 10.353 43.0803C9.94952 43.0803 9.62034 42.9736 9.3655 42.7604C9.13189 42.5472 8.88767 42.1954 8.63282 41.705C8.14437 40.7242 7.43294 40.2338 6.49851 40.2338C5.58532 40.2338 4.85264 40.7029 4.30048 41.641C3.76956 42.5579 3.5041 43.7199 3.5041 45.1271C3.5041 47.0461 3.89698 48.4746 4.68275 49.4128C5.46852 50.3296 6.46665 50.788 7.67716 50.788C7.99572 50.788 8.30365 50.7773 8.60097 50.756C8.89829 50.7134 9.17437 50.6601 9.42921 50.5961C9.68405 50.5108 9.90704 50.4362 10.0982 50.3722C10.2893 50.3083 10.4804 50.2123 10.6716 50.0844C10.8839 49.9565 11.0326 49.8712 11.1175 49.8285C11.2025 49.7646 11.3299 49.6793 11.4998 49.5727C11.6697 49.4447 11.7547 49.3808 11.7547 49.3808C11.7971 49.4021 11.8502 49.4661 11.9139 49.5727C11.9776 49.6793 12.0095 49.7859 12.0095 49.8925C12.0095 50.127 11.9458 50.3296 11.8184 50.5002C11.4998 51.0759 10.8733 51.6515 9.9389 52.2272C9.00447 52.8029 7.96386 53.0907 6.81706 53.0907C4.92697 53.0907 3.31297 52.3978 1.97504 51.0119C0.658346 49.626 0 47.9309 0 45.9267C0 43.9864 0.637109 42.3127 1.91133 40.9055C3.18554 39.4769 4.85264 38.7626 6.91263 38.7626Z"/>
  <path d="M20.706 40.2658C19.7079 40.2658 18.9327 40.7562 18.3806 41.737C17.8284 42.6965 17.5523 43.8478 17.5523 45.1911C17.5523 46.9181 17.8921 48.4213 18.5717 49.7006C19.2725 50.9799 20.2388 51.6196 21.4706 51.6196C22.4687 51.6196 23.2439 51.1292 23.796 50.1484C24.3694 49.1676 24.6561 48.0162 24.6561 46.6943C24.6561 45.5855 24.5181 44.5621 24.242 43.624C23.9659 42.6645 23.5199 41.8649 22.9041 41.2253C22.2882 40.5856 21.5555 40.2658 20.706 40.2658ZM21.1202 38.7626C23.1164 38.7626 24.8154 39.4662 26.217 40.8735C27.6399 42.2594 28.3513 43.9438 28.3513 45.9267C28.3513 47.9096 27.6505 49.6047 26.2489 51.0119C24.8685 52.4191 23.1695 53.1227 21.152 53.1227C19.1345 53.1227 17.4249 52.4191 16.0233 51.0119C14.6216 49.6047 13.9208 47.9096 13.9208 45.9267C13.9208 43.9225 14.611 42.2274 15.9914 40.8415C17.3931 39.4556 19.1026 38.7626 21.1202 38.7626Z"/>
  <path d="M35.6144 48.2934C35.6144 49.6153 35.6887 50.5748 35.8374 51.1718C35.8798 51.321 36.1347 51.4916 36.6019 51.6835C37.0903 51.8541 37.4195 51.9394 37.5894 51.9394C37.6531 51.9394 37.685 52.0886 37.685 52.3871C37.7062 52.6856 37.6956 52.8882 37.6531 52.9948C37.3558 52.9735 36.9523 52.9415 36.4426 52.8988C35.9542 52.8775 35.5082 52.8562 35.1047 52.8349C34.7012 52.8136 34.3189 52.8029 33.9579 52.8029C33.5544 52.8029 33.1509 52.8136 32.7474 52.8349C32.3439 52.8562 31.8979 52.8775 31.4095 52.8988C30.921 52.9415 30.5175 52.9735 30.199 52.9948C30.114 52.9095 30.0715 52.7176 30.0715 52.4191C30.0715 52.0993 30.114 51.9394 30.199 51.9394C30.4326 51.9394 30.783 51.8541 31.2502 51.6835C31.7386 51.4916 32.0041 51.321 32.0466 51.1718C32.2165 50.4255 32.3014 49.6366 32.3014 48.8051V35.5004C32.3014 34.6902 32.2377 33.9653 32.1103 33.3256C32.0041 32.9845 31.4732 32.8139 30.5175 32.8139H30.199C30.0715 32.8139 30.0078 32.686 30.0078 32.4301C30.0078 32.089 30.0715 31.9184 30.199 31.9184C30.8573 31.8544 31.4838 31.7692 32.0784 31.6625C32.6731 31.5559 33.1615 31.4493 33.5438 31.3427C33.9473 31.2361 34.2871 31.1402 34.5631 31.0549C34.8605 30.9483 35.0941 30.863 35.264 30.799L35.487 30.7031H35.5507C35.6356 30.7031 35.7206 30.767 35.8055 30.895C35.9117 31.0229 35.9754 31.1295 35.9966 31.2148C35.7418 32.025 35.6144 33.0271 35.6144 34.2211V48.2934Z"/>
  <path d="M45.0117 48.2934C45.0117 49.6153 45.0861 50.5748 45.2347 51.1718C45.2772 51.321 45.532 51.4916 45.9993 51.6835C46.4877 51.8541 46.8169 51.9394 46.9868 51.9394C47.0505 51.9394 47.0823 52.0886 47.0823 52.3871C47.1036 52.6856 47.093 52.8882 47.0505 52.9948C46.7532 52.9735 46.3497 52.9415 45.84 52.8988C45.3515 52.8775 44.9055 52.8562 44.502 52.8349C44.0985 52.8136 43.7163 52.8029 43.3553 52.8029C42.9517 52.8029 42.5482 52.8136 42.1447 52.8349C41.7412 52.8562 41.2953 52.8775 40.8068 52.8988C40.3184 52.9415 39.9149 52.9735 39.5963 52.9948C39.5114 52.9095 39.4689 52.7176 39.4689 52.4191C39.4689 52.0993 39.5114 51.9394 39.5963 51.9394C39.8299 51.9394 40.1803 51.8541 40.6475 51.6835C41.136 51.4916 41.4015 51.321 41.4439 51.1718C41.6138 50.4255 41.6988 49.6366 41.6988 48.8051V35.5004C41.6988 34.6902 41.6351 33.9653 41.5076 33.3256C41.4015 32.9845 40.8705 32.8139 39.9149 32.8139H39.5963C39.4689 32.8139 39.4052 32.686 39.4052 32.4301C39.4052 32.089 39.4689 31.9184 39.5963 31.9184C40.2547 31.8544 40.8811 31.7692 41.4758 31.6625C42.0704 31.5559 42.5589 31.4493 42.9411 31.3427C43.3446 31.2361 43.6844 31.1402 43.9605 31.0549C44.2578 30.9483 44.4914 30.863 44.6613 30.799L44.8843 30.7031H44.948C45.033 30.7031 45.1179 30.767 45.2029 30.895C45.3091 31.0229 45.3728 31.1295 45.394 31.2148C45.1392 32.025 45.0117 33.0271 45.0117 34.2211V48.2934Z"/>
  <path d="M54.1224 51.0439C54.6958 51.0439 55.1842 50.8946 55.5877 50.5961C56.0125 50.2976 56.2248 49.9565 56.2248 49.5727V46.3105C56.0762 46.3744 55.7576 46.481 55.2692 46.6303C54.802 46.7796 54.4409 46.9075 54.1861 47.0141C53.9313 47.1207 53.6339 47.2699 53.2941 47.4618C52.9544 47.6537 52.6995 47.8883 52.5296 48.1655C52.381 48.4426 52.3066 48.7411 52.3066 49.061C52.3066 49.7433 52.4765 50.2443 52.8163 50.5641C53.1561 50.884 53.5915 51.0439 54.1224 51.0439ZM55.5559 38.7626C56.8726 38.7626 57.8601 39.1144 58.5184 39.8181C59.1768 40.5003 59.506 41.6837 59.506 43.3681V49.6686C59.506 50.0951 59.6015 50.4255 59.7927 50.6601C59.9838 50.8733 60.2386 50.9799 60.5572 50.9799C60.8757 50.9799 61.2368 50.8413 61.6403 50.5641C61.7677 50.6068 61.8314 50.724 61.8314 50.9159C61.8314 51.3424 61.7677 51.6622 61.6403 51.8754C61.3217 52.1313 60.897 52.3978 60.3661 52.675C59.8351 52.9521 59.3254 53.0907 58.837 53.0907C58.3485 53.0907 57.8707 52.9095 57.4035 52.547C56.9363 52.1846 56.6283 51.7901 56.4797 51.3637C56.4585 51.385 56.3735 51.4596 56.2248 51.5876C56.0974 51.6942 55.9063 51.8328 55.6515 52.0033C55.4178 52.1739 55.1418 52.3445 54.8232 52.5151C54.5259 52.6856 54.1649 52.8242 53.7401 52.9308C53.3366 53.0588 52.9225 53.1227 52.4978 53.1227C51.4359 53.1227 50.5652 52.8349 49.8856 52.2592C49.2273 51.6622 48.8981 50.852 48.8981 49.8285C48.8981 49.3168 49.0149 48.8371 49.2485 48.3893C49.5033 47.9416 49.8007 47.5791 50.1405 47.3019C50.4803 47.0034 50.9368 46.7156 51.5102 46.4384C52.0836 46.1612 52.5721 45.9587 52.9756 45.8307C53.4003 45.6815 53.9313 45.5109 54.5684 45.319C55.2267 45.1271 55.6833 44.9885 55.9381 44.9033C56.1293 44.818 56.2248 44.6474 56.2248 44.3915V42.6325C56.2248 41.8862 56.055 41.2999 55.7152 40.8735C55.3754 40.447 54.9188 40.2338 54.3454 40.2338C53.7083 40.2338 53.2092 40.4364 52.8482 40.8415C52.4871 41.2253 52.3066 41.7796 52.3066 42.5046C52.3066 42.931 52.1474 43.2508 51.8288 43.464C51.5102 43.6559 51.1492 43.7519 50.7457 43.7519C49.9599 43.7519 49.4078 43.496 49.0892 42.9843C49.0892 41.9609 49.7794 41.0014 51.1598 40.1059C52.5615 39.2104 54.0268 38.7626 55.5559 38.7626Z"/>
  <path d="M71.9614 38.7946C73.3206 38.7946 74.5311 39.1464 75.593 39.85C76.6548 40.5536 77.4406 41.4065 77.9503 42.4086C78.4599 43.4107 78.7148 44.4555 78.7148 45.5429C78.7148 47.739 77.9715 49.562 76.4849 51.0119C75.0196 52.4404 73.2675 53.1547 71.2288 53.1547C70.6129 53.1547 69.859 53.0055 68.967 52.707C68.8821 52.707 68.8396 52.8562 68.8396 53.1547V55.3295C68.8396 56.6514 68.9246 57.6109 69.0944 58.2079C69.1157 58.3785 69.3918 58.5384 69.9227 58.6877C70.4748 58.8582 70.8465 58.9435 71.0376 58.9435C71.1013 58.9435 71.1332 59.0928 71.1332 59.3913C71.1544 59.7111 71.1544 59.9136 71.1332 59.9989C70.9845 59.9989 70.4111 59.9669 69.413 59.903C68.4361 59.839 67.714 59.807 67.2468 59.807C66.7159 59.807 65.962 59.839 64.9851 59.903C64.0294 59.9669 63.4667 59.9989 63.2968 59.9989C63.233 59.9136 63.2012 59.7111 63.2012 59.3913C63.2012 59.0928 63.233 58.9435 63.2968 58.9435C63.5516 58.9435 63.9339 58.8582 64.4436 58.6877C64.9745 58.5384 65.2718 58.3785 65.3355 58.2079C65.4629 57.5896 65.5266 56.822 65.5266 55.9052V43.6879C65.5266 42.6645 65.3567 41.9715 65.017 41.6091C64.8471 41.3959 64.6134 41.2466 64.3161 41.1613C64.0188 41.0547 63.764 40.9907 63.5516 40.9694C63.3392 40.9481 63.233 40.9161 63.233 40.8735C63.233 40.2551 63.2968 39.9353 63.4242 39.914C65.1868 39.7434 66.769 39.4449 68.1706 39.0185C68.1706 39.0185 68.2662 38.9972 68.4573 38.9545C68.6485 38.8906 68.7547 38.8586 68.7759 38.8586C68.8608 38.8586 68.9033 39.0825 68.9033 39.5302C68.9033 39.6155 68.8821 39.7434 68.8396 39.914C69.1794 39.6581 69.6466 39.4129 70.2412 39.1784C70.8571 38.9226 71.4305 38.7946 71.9614 38.7946ZM71.1969 40.4897C70.4961 40.4897 69.9227 40.6922 69.4767 41.0974C69.052 41.5025 68.8396 42.0462 68.8396 42.7285V49.3168C68.8396 50.0204 69.1263 50.5855 69.6997 51.0119C70.2731 51.417 70.889 51.6196 71.5473 51.6196C72.5242 51.6196 73.3418 51.1718 74.0002 50.2763C74.6798 49.3808 75.0196 48.1228 75.0196 46.5024C75.0196 44.7753 74.6798 43.3468 74.0002 42.2167C73.3206 41.0654 72.3862 40.4897 71.1969 40.4897Z"/>
  <path d="M85.6593 38.7307C86.8485 38.7307 88.0803 38.9119 89.3545 39.2744C89.5669 40.2338 89.6837 41.4278 89.7049 42.8564C89.7049 43.027 89.5669 43.1122 89.2908 43.1122C88.8236 43.1122 88.5687 43.027 88.5263 42.8564C88.3776 42.1101 88.0591 41.4811 87.5706 40.9694C87.1034 40.4364 86.4663 40.1699 85.6593 40.1699C85.0434 40.1699 84.5549 40.3085 84.1939 40.5856C83.8541 40.8628 83.6842 41.2573 83.6842 41.769C83.6842 42.0675 83.7373 42.3447 83.8435 42.6005C83.9709 42.8351 84.1621 43.0589 84.4169 43.2722C84.693 43.4854 84.9266 43.6559 85.1177 43.7839C85.3301 43.9118 85.638 44.0824 86.0415 44.2956C86.1902 44.3809 86.2964 44.4342 86.3601 44.4555C86.4026 44.4768 86.5618 44.5621 86.8379 44.7114C87.114 44.8606 87.2839 44.9566 87.3476 44.9992C87.4326 45.0418 87.6025 45.1484 87.8573 45.319C88.1334 45.4683 88.3245 45.5855 88.4307 45.6708C88.5369 45.7561 88.6962 45.884 88.9085 46.0546C89.1421 46.2252 89.3014 46.3744 89.3864 46.5024C89.4925 46.6303 89.62 46.8009 89.7686 47.0141C89.9385 47.206 90.0553 47.3979 90.119 47.5898C90.1827 47.7603 90.2358 47.9629 90.2783 48.1974C90.342 48.4107 90.3739 48.6345 90.3739 48.8691C90.3739 50.2123 89.8536 51.2784 88.813 52.0673C87.7936 52.8349 86.5512 53.2187 85.0859 53.2187C83.7692 53.2187 82.3994 52.9202 80.9765 52.3232C80.8703 51.9607 80.7642 51.3744 80.658 50.5641C80.5518 49.7326 80.4987 49.1143 80.4987 48.7092C80.6261 48.6025 80.7748 48.5492 80.9447 48.5492C81.4331 48.5492 81.688 48.6345 81.7092 48.8051C81.8791 49.7006 82.2932 50.4255 82.9516 50.9799C83.6311 51.5129 84.3638 51.7795 85.1496 51.7795C85.7442 51.7795 86.2327 51.6302 86.6149 51.3317C86.9972 51.0332 87.1883 50.5961 87.1883 50.0204C87.1883 49.8072 87.1565 49.6153 87.0928 49.4447C87.0503 49.2529 86.9547 49.0716 86.8061 48.9011C86.6574 48.7092 86.53 48.5599 86.4238 48.4533C86.3389 48.3254 86.1477 48.1761 85.8504 48.0055C85.5743 47.835 85.362 47.7177 85.2133 47.6537C85.0859 47.5685 84.8204 47.4299 84.4169 47.238C84.0346 47.0247 83.7692 46.8755 83.6205 46.7902C82.6436 46.2785 81.8897 45.7135 81.3588 45.0951C80.8279 44.4555 80.5624 43.6879 80.5624 42.7924C80.5624 41.4918 81.0721 40.4897 82.0915 39.7861C83.1108 39.0825 84.3001 38.7307 85.6593 38.7307Z"/>
  <path d="M98.9111 40.2658C97.913 40.2658 97.1378 40.7562 96.5857 41.737C96.0335 42.6965 95.7574 43.8478 95.7574 45.1911C95.7574 46.9181 96.0972 48.4213 96.7768 49.7006C97.4776 50.9799 98.4439 51.6196 99.6757 51.6196C100.674 51.6196 101.449 51.1292 102.001 50.1484C102.575 49.1676 102.861 48.0162 102.861 46.6943C102.861 45.5855 102.723 44.5621 102.447 43.624C102.171 42.6645 101.725 41.8649 101.109 41.2253C100.493 40.5856 99.7606 40.2658 98.9111 40.2658ZM99.3253 38.7626C101.322 38.7626 103.02 39.4662 104.422 40.8735C105.845 42.2594 106.556 43.9438 106.556 45.9267C106.556 47.9096 105.856 49.6047 104.454 51.0119C103.074 52.4191 101.375 53.1227 99.3571 53.1227C97.3396 53.1227 95.63 52.4191 94.2284 51.0119C92.8267 49.6047 92.1259 47.9096 92.1259 45.9267C92.1259 43.9225 92.8161 42.2274 94.1965 40.8415C95.5982 39.4556 97.3077 38.7626 99.3253 38.7626Z"/>
  <path d="M113.819 48.2934C113.819 49.6153 113.894 50.5748 114.042 51.1718C114.085 51.321 114.34 51.4916 114.807 51.6835C115.295 51.8541 115.625 51.9394 115.795 51.9394C115.858 51.9394 115.89 52.0886 115.89 52.3871C115.911 52.6856 115.901 52.8882 115.858 52.9948C115.561 52.9735 115.157 52.9415 114.648 52.8988C114.159 52.8775 113.713 52.8562 113.31 52.8349C112.906 52.8136 112.524 52.8029 112.163 52.8029C111.759 52.8029 111.356 52.8136 110.952 52.8349C110.549 52.8562 110.103 52.8775 109.615 52.8988C109.126 52.9415 108.723 52.9735 108.404 52.9948C108.319 52.9095 108.277 52.7176 108.277 52.4191C108.277 52.0993 108.319 51.9394 108.404 51.9394C108.638 51.9394 108.988 51.8541 109.455 51.6835C109.944 51.4916 110.209 51.321 110.252 51.1718C110.422 50.4255 110.507 49.6366 110.507 48.8051V35.5004C110.507 34.6902 110.443 33.9653 110.315 33.3256C110.209 32.9845 109.678 32.8139 108.723 32.8139H108.404C108.277 32.8139 108.213 32.686 108.213 32.4301C108.213 32.089 108.277 31.9184 108.404 31.9184C109.062 31.8544 109.689 31.7692 110.284 31.6625C110.878 31.5559 111.367 31.4493 111.749 31.3427C112.152 31.2361 112.492 31.1402 112.768 31.0549C113.066 30.9483 113.299 30.863 113.469 30.799L113.692 30.7031H113.756C113.841 30.7031 113.926 30.767 114.011 30.895C114.117 31.0229 114.181 31.1295 114.202 31.2148C113.947 32.025 113.819 33.0271 113.819 34.2211V48.2934Z"/>
  <path d="M124.459 40.2658C123.461 40.2658 122.686 40.7562 122.134 41.737C121.582 42.6965 121.306 43.8478 121.306 45.1911C121.306 46.9181 121.645 48.4213 122.325 49.7006C123.026 50.9799 123.992 51.6196 125.224 51.6196C126.222 51.6196 126.997 51.1292 127.549 50.1484C128.123 49.1676 128.409 48.0162 128.409 46.6943C128.409 45.5855 128.271 44.5621 127.995 43.624C127.719 42.6645 127.273 41.8649 126.657 41.2253C126.041 40.5856 125.309 40.2658 124.459 40.2658ZM124.873 38.7626C126.87 38.7626 128.569 39.4662 129.97 40.8735C131.393 42.2594 132.105 43.9438 132.105 45.9267C132.105 47.9096 131.404 49.6047 130.002 51.0119C128.622 52.4191 126.923 53.1227 124.905 53.1227C122.888 53.1227 121.178 52.4191 119.776 51.0119C118.375 49.6047 117.674 47.9096 117.674 45.9267C117.674 43.9225 118.364 42.2274 119.745 40.8415C121.146 39.4556 122.856 38.7626 124.873 38.7626Z"/>
  <path d="M144.305 55.5534C144.305 54.8071 143.764 54.3061 142.681 54.0502C141.619 53.8157 140.185 53.6984 138.38 53.6984C138.338 53.6984 138.284 53.7091 138.221 53.7304C138.178 53.7517 138.125 53.7837 138.061 53.8263C137.785 53.9329 137.573 54.0182 137.424 54.0822C137.276 54.1675 137.106 54.2847 136.915 54.434C136.724 54.6046 136.575 54.7965 136.469 55.0097C136.384 55.2229 136.341 55.4788 136.341 55.7773C136.341 56.5448 136.745 57.1845 137.552 57.6962C138.359 58.2079 139.261 58.4638 140.259 58.4638C141.449 58.4638 142.415 58.1866 143.158 57.6322C143.923 57.0779 144.305 56.3849 144.305 55.5534ZM137.488 43.464C137.488 44.5088 137.7 45.3937 138.125 46.1186C138.55 46.8222 139.145 47.174 139.909 47.174C140.695 47.174 141.268 46.8755 141.629 46.2785C142.012 45.6602 142.203 44.9033 142.203 44.0077C142.203 42.8777 141.99 41.9609 141.566 41.2573C141.141 40.5536 140.525 40.2018 139.718 40.2018C138.953 40.2018 138.391 40.5323 138.03 41.1933C137.669 41.8543 137.488 42.6112 137.488 43.464ZM139.909 38.8266C140.674 38.8266 141.555 38.9652 142.553 39.2424C143.551 39.5196 144.401 39.6581 145.102 39.6581H146.917C146.96 39.6581 147.034 39.7967 147.14 40.0739C147.246 40.3511 147.3 40.5643 147.3 40.7136C147.3 41.0121 147.236 41.1613 147.108 41.1613H145.038C144.953 41.1613 144.91 41.1933 144.91 41.2573C144.91 41.2786 145.006 41.5558 145.197 42.0888C145.388 42.6218 145.484 43.1336 145.484 43.624C145.484 44.8819 144.953 46.0226 143.891 47.0461C142.85 48.0482 141.544 48.5492 139.973 48.5492C139.208 48.5492 138.55 48.5066 137.998 48.4213C137.743 48.5279 137.509 48.7305 137.297 49.029C137.085 49.3062 136.978 49.562 136.978 49.7966C136.978 50.0098 137.074 50.191 137.265 50.3403C137.477 50.4895 137.796 50.5961 138.221 50.6601C138.645 50.724 139.007 50.7667 139.304 50.788C139.601 50.8093 140.026 50.8307 140.578 50.852C140.812 50.852 140.971 50.852 141.056 50.852C143.18 50.9159 144.73 51.2144 145.707 51.7475C146.705 52.2592 147.204 53.0374 147.204 54.0822C147.225 55.6813 146.461 57.0672 144.91 58.2399C143.36 59.4126 141.566 59.9989 139.527 59.9989C137.977 60.0203 136.617 59.7218 135.449 59.1034C134.303 58.4851 133.729 57.6109 133.729 56.4809C133.729 55.8625 134.026 55.2655 134.621 54.6899C135.237 54.1142 135.895 53.7091 136.596 53.4745C136.044 53.304 135.534 52.9841 135.067 52.5151C134.6 52.0247 134.366 51.4596 134.366 50.82C134.366 49.9032 135.152 48.9544 136.724 47.9736C136.108 47.6964 135.534 47.1527 135.003 46.3425C134.472 45.5109 134.207 44.6367 134.207 43.7199C134.207 42.2061 134.759 41.0121 135.863 40.1379C136.968 39.2637 138.316 38.8266 139.909 38.8266Z"/>
  <path d="M151.377 34.9887C150.995 34.5836 150.804 34.1145 150.804 33.5815C150.804 33.0271 150.995 32.5581 151.377 32.1743C151.759 31.7905 152.227 31.5986 152.779 31.5986C153.331 31.5986 153.798 31.7905 154.18 32.1743C154.563 32.5581 154.754 33.0271 154.754 33.5815C154.754 34.1145 154.563 34.5836 154.18 34.9887C153.798 35.3725 153.331 35.5644 152.779 35.5644C152.227 35.5644 151.759 35.3725 151.377 34.9887ZM154.69 48.3573C154.69 49.658 154.775 50.6174 154.945 51.2358C154.987 51.385 155.274 51.5449 155.805 51.7155C156.336 51.8647 156.697 51.9394 156.888 51.9394C156.973 51.9394 157.015 52.0993 157.015 52.4191C157.037 52.7176 157.026 52.9202 156.984 53.0268C156.835 53.0055 156.262 52.9628 155.263 52.8988C154.286 52.8349 153.564 52.8029 153.097 52.8029C152.566 52.8029 151.812 52.8349 150.835 52.8988C149.88 52.9628 149.328 53.0055 149.179 53.0268C149.094 52.9415 149.052 52.7389 149.052 52.4191C149.052 52.0993 149.094 51.9394 149.179 51.9394C149.413 51.9394 149.795 51.8647 150.326 51.7155C150.857 51.5449 151.143 51.385 151.186 51.2358C151.335 50.5961 151.409 49.8179 151.409 48.9011V43.6879C151.409 42.6858 151.239 42.0035 150.899 41.641C150.708 41.4278 150.464 41.2679 150.167 41.1613C149.869 41.0547 149.614 40.9907 149.402 40.9694C149.19 40.9481 149.083 40.9161 149.083 40.8735C149.083 40.2551 149.147 39.9353 149.275 39.914C149.869 39.8714 150.729 39.7434 151.855 39.5302C152.98 39.317 153.819 39.1251 154.371 38.9545C154.393 38.9545 154.435 38.9439 154.499 38.9226C154.584 38.9012 154.626 38.8906 154.626 38.8906C154.732 38.8906 154.817 38.9652 154.881 39.1144C154.945 39.2637 154.966 39.381 154.945 39.4662C154.775 40.8308 154.69 41.7477 154.69 42.2167V48.3573Z"/>
  <path d="M164.884 40.2338C164.374 40.2338 163.917 40.3831 163.514 40.6816C163.11 40.9801 162.803 41.3425 162.59 41.769C162.378 42.1954 162.219 42.6005 162.112 42.9843C162.027 43.3468 161.985 43.6559 161.985 43.9118C161.985 44.0611 162.049 44.1357 162.176 44.1357H167.337C167.528 44.1357 167.623 43.9758 167.623 43.6559C167.623 42.9097 167.368 42.1528 166.859 41.3852C166.37 40.6176 165.712 40.2338 164.884 40.2338ZM165.107 38.7626C166.105 38.7626 166.997 38.9652 167.783 39.3703C168.568 39.7541 169.184 40.2551 169.63 40.8735C170.076 41.4705 170.416 42.0995 170.65 42.7604C170.883 43.4001 171 44.0184 171 44.6154C171 45.0845 170.915 45.383 170.745 45.5109C170.596 45.6175 170.278 45.6708 169.789 45.6708H162.176C162.027 45.6708 161.953 45.7348 161.953 45.8627C161.953 46.6303 162.091 47.3766 162.367 48.1015C162.643 48.8264 163.11 49.4554 163.769 49.9884C164.448 50.5215 165.255 50.788 166.19 50.788C166.508 50.788 166.816 50.7773 167.114 50.756C167.411 50.7134 167.687 50.6601 167.942 50.5961C168.197 50.5108 168.42 50.4362 168.611 50.3722C168.802 50.3083 168.993 50.2123 169.184 50.0844C169.397 49.9565 169.545 49.8712 169.63 49.8285C169.715 49.7646 169.843 49.6793 170.012 49.5727C170.182 49.4447 170.267 49.3808 170.267 49.3808C170.31 49.4021 170.363 49.4661 170.427 49.5727C170.49 49.6793 170.522 49.7859 170.522 49.8925C170.522 50.127 170.458 50.3296 170.331 50.5002C170.012 51.0759 169.386 51.6515 168.452 52.2272C167.517 52.8029 166.466 53.0907 165.298 53.0907C163.45 53.0907 161.857 52.4085 160.52 51.0439C159.182 49.658 158.513 47.9842 158.513 46.0226C158.513 43.8692 159.129 42.1208 160.36 40.7775C161.613 39.4343 163.195 38.7626 165.107 38.7626Z"/>
  </g>
</svg>
